<svg width="685" height="245" viewBox="0 0 685 245" fill="none" xmlns="http://www.w3.org/2000/svg">
<path fill-rule="evenodd" clip-rule="evenodd" d="M107.227 0.206688C58.348 4.80413 18.8771 38.5745 4.69978 87.9249C-7.26867 129.588 4.06938 176.637 33.6125 207.903C69.0171 245.372 121.25 255.449 166.737 233.588C200.695 217.266 224.441 186.283 232.074 148.339C232.946 144.004 233.884 135.102 234.159 128.556C235.669 92.5232 223.626 59.7748 199.894 35.3831C182.346 17.3455 162.908 6.69776 139.108 2.0839C131.161 0.543216 114.24 -0.452434 107.227 0.206688ZM372.764 10.4054C324.82 16.8645 287.424 53.1261 277.387 102.889C275.162 113.917 275.397 140.86 277.813 151.818C288.223 199.038 319.666 231.852 364.556 242.347C369.864 243.588 374.346 243.877 387.949 243.861C403.488 243.842 405.453 243.67 413.62 241.614C457.393 230.599 489.443 195.299 497.263 149.492C498.706 141.031 498.883 137.372 498.507 123.631C498.222 113.199 497.593 105.486 496.7 101.484C486.017 53.5759 453.589 20.2586 409.196 11.5792C400.981 9.97287 380.801 9.32276 372.764 10.4054ZM650.613 15.7523C648.13 16.9047 645.049 18.8402 643.765 20.0534C637.576 25.9026 634.993 37.3728 637.989 45.7042C642.741 58.9186 658.722 65.6075 670.756 59.4185C675.972 56.7361 681.117 51.2029 683.014 46.2336C685.19 40.5371 684.487 30.7463 681.542 25.7204C675.183 14.8699 661.803 10.5573 650.613 15.7523ZM132.673 38.5917C170.493 44.7775 198.295 76.5097 202.456 118.244C203.559 129.311 202.477 141.84 199.541 151.968C197.502 159.006 193.919 166.919 191.373 170.007C190.046 171.616 190.027 171.607 190.456 169.57C192.546 159.63 193.196 138.65 191.765 127.241C189.472 108.95 183.8 96.7947 172.072 85.0299C161.228 74.1515 148.981 68.6643 135.546 68.6643C120.141 68.6643 103.434 76.9316 92.8079 89.8145C74.529 111.975 74.6849 141.554 93.1855 161.561C102.682 171.83 113.112 177.072 129.495 179.807C133.449 180.468 136.777 183.61 136.777 186.684C136.777 197.497 111.634 201.054 91.8976 193.035C70.4174 184.306 54.8275 166.624 48.7986 144.151C46.3164 134.897 46.0742 113.471 48.3471 104.117C57.5584 66.2075 88.3106 38.5688 122.413 37.5485C124.218 37.4943 128.836 37.9638 132.673 38.5917ZM404.776 55.0796C412.1 57.0947 422.177 62.2577 427.88 66.9151C434.017 71.927 441.916 82.2218 446.273 90.8873C461.241 120.658 456.137 158.705 434.022 182.202C426.597 190.092 413.672 197.063 401.759 199.606C393.049 201.464 378.487 201.281 370.487 199.212C342.661 192.016 322.143 165.71 319.959 134.431C318.746 117.045 321.217 103.27 328.014 89.5485C336.979 71.4452 350.771 60.163 370.252 54.9926C376.821 53.2492 378.982 53.0604 388.77 53.3715C395.461 53.5841 401.803 54.2613 404.776 55.0796ZM599.312 71.6849C587.517 73.3159 578.069 78.0832 570.188 86.3793L564.427 92.4444V83.8233V75.2021H543.906H523.385V156.874V238.546H543.906H564.427V192.731C564.427 163.469 564.747 145.155 565.313 142.045C567.217 131.588 574.661 121.035 583.176 116.719C592.464 112.013 606.435 110.684 615.113 113.682L619.422 115.171V93.6592V72.1479L615.113 71.6299C610.582 71.0857 603.464 71.1103 599.312 71.6849ZM639.942 156.464V238.546H660.463H680.984V156.464V74.3813H660.463H639.942V156.464Z" fill="black"/>
</svg>
