<svg width="235" height="245" viewBox="0 0 235 245" fill="none" xmlns="http://www.w3.org/2000/svg">
<path fill-rule="evenodd" clip-rule="evenodd" d="M107.227 0.206688C58.348 4.80413 18.8771 38.5745 4.69978 87.9249C-7.26867 129.588 4.06938 176.637 33.6125 207.903C69.0171 245.372 121.25 255.449 166.737 233.588C200.695 217.266 224.441 186.283 232.074 148.339C232.946 144.004 233.884 135.102 234.159 128.556C235.669 92.5232 223.626 59.7748 199.894 35.3831C182.346 17.3455 162.908 6.69776 139.108 2.0839C131.161 0.543216 114.24 -0.452434 107.227 0.206688ZM132.673 38.5917C170.493 44.7775 198.295 76.5097 202.456 118.244C203.559 129.311 202.477 141.84 199.541 151.968C197.502 159.006 193.919 166.919 191.373 170.007C190.046 171.616 190.027 171.607 190.456 169.57C192.546 159.63 193.196 138.65 191.765 127.241C189.472 108.95 183.8 96.7947 172.072 85.0299C161.228 74.1515 148.981 68.6643 135.546 68.6643C120.141 68.6643 103.434 76.9316 92.8079 89.8145C74.529 111.975 74.6849 141.554 93.1855 161.561C102.682 171.83 113.112 177.072 129.495 179.807C133.449 180.468 136.777 183.61 136.777 186.684C136.777 197.497 111.634 201.054 91.8976 193.035C70.4174 184.306 54.8275 166.624 48.7986 144.151C46.3164 134.897 46.0742 113.471 48.3471 104.117C57.5584 66.2075 88.3106 38.5688 122.413 37.5485C124.218 37.4943 128.836 37.9638 132.673 38.5917Z" fill="white"/>
</svg>
